<?xml version="1.0" encoding="UTF-8"?>
<!DOCTYPE svg PUBLIC "-//W3C//DTD SVG 1.1//EN" "http://www.w3.org/Graphics/SVG/1.1/DTD/svg11.dtd">
<!-- Creator: CorelDRAW -->
<svg xmlns="http://www.w3.org/2000/svg" xml:space="preserve" width="120mm" height="160mm" version="1.1" style="shape-rendering:geometricPrecision; text-rendering:geometricPrecision; image-rendering:optimizeQuality; fill-rule:evenodd; clip-rule:evenodd"
viewBox="0 0 12000 16000"
 xmlns:xlink="http://www.w3.org/1999/xlink"
 xmlns:xodm="http://www.corel.com/coreldraw/odm/2003">
 <defs>
  <style type="text/css">
   <![CDATA[
    .fil0 {fill:#ED3237}
    .fil1 {fill:#3E4095}
   ]]>
  </style>
 </defs>
 <g id="Camada_x0020_1">
  <metadata id="CorelCorpID_0Corel-Layer"/>
  <circle class="fil0" transform="matrix(0.858603 -0.911406 0.896734 0.907349 4855.69 7694.15)" r="3037.52"/>
  <path class="fil1" d="M6653.08 2358.93c2828.13,-3002.06 4766.99,-3000.8 4316.24,2.84 -450.76,3003.64 -3125.09,7901.8 -5953.24,10903.88 -2828.11,3002.04 -4767.02,3000.84 -4316.24,-2.83 141.46,-942.59 501.97,-2071.85 1017.43,-3270.43 38.9,56.25 79.3,111.7 121.25,166.3 -484.8,1064.96 -824.87,2075.85 -948.98,2902.77 -352.24,2346.51 1162.59,2347.51 3372.04,2.18 2209.42,-2345.3 4298.62,-6171.97 4650.9,-8518.53 318.5,-2122.3 -890.33,-2325.76 -2759,-609.9 -225.08,-86.74 -456.03,-151.24 -689.61,-193.94 389.36,-491.76 787.73,-956.17 1189.21,-1382.34z"/>
 </g>
</svg>
