<?xml version="1.0" encoding="UTF-8"?>
<!DOCTYPE svg PUBLIC "-//W3C//DTD SVG 1.1//EN" "http://www.w3.org/Graphics/SVG/1.1/DTD/svg11.dtd">
<!-- Creator: CorelDRAW -->
<svg xmlns="http://www.w3.org/2000/svg" xml:space="preserve" width="297mm" height="210mm" version="1.1" style="shape-rendering:geometricPrecision; text-rendering:geometricPrecision; image-rendering:optimizeQuality; fill-rule:evenodd; clip-rule:evenodd"
viewBox="0 0 29700 21000"
 xmlns:xlink="http://www.w3.org/1999/xlink"
 xmlns:xodm="http://www.corel.com/coreldraw/odm/2003">
 <defs>
  <style type="text/css">
   <![CDATA[
    .fil0 {fill:#282829}
    .fil2 {fill:#00AFEF;fill-rule:nonzero}
    .fil1 {fill:#3E4095;fill-rule:nonzero}
   ]]>
  </style>
 </defs>
 <g id="Camada_x0020_1">
  <metadata id="CorelCorpID_0Corel-Layer"/>
  <g id="_1457325599056">
   <path class="fil0" d="M17268.03 17899.13c-1505.98,728.38 -3326.71,927.14 -4980.56,927.14 -2399.2,0 -4653.55,-638.46 -6359.13,-2387.9 -1687.41,-1730.81 -2325.5,-3950.6 -2325.5,-6332.95 0,-2599.21 752.3,-4955.71 2601.32,-6818.1 1836.45,-1849.71 4158.12,-2623.17 6743.35,-2623.17 1427.98,0 2943.56,150.23 4290.72,648.83l220.35 81.56 0 4496.42 -510.69 -305.32c-1131.41,-676.44 -2380.51,-966.4 -3694.5,-966.4 -1381.76,0 -2626.41,395.6 -3602,1395.38 -1014.15,1039.3 -1365,2397.43 -1365,3821.14 0,1363.32 331.84,2667.39 1287.88,3675.73 928.81,979.63 2138.6,1351.64 3469.84,1351.64 1394.62,0 2703.54,-332.82 3905.85,-1040.06l508.62 -299.19 0 4283.09 -190.55 92.16z"/>
  </g>
  <path class="fil1" d="M17121.08 17595.3c-1231.54,595.65 -2845.43,893.47 -4833.61,893.47 -2591.88,0 -4632.38,-760.66 -6117.47,-2286 -1489.12,-1525.35 -2229.66,-3557.8 -2229.66,-6097.35 0,-2704.57 833.1,-4898.01 2503.33,-6580.31 1670.24,-1682.31 3839.52,-2523.46 6503.84,-2523.46 1650.11,0 3042.64,209.28 4173.57,627.85l0 3666.46c-1130.93,-676.15 -2418.82,-1014.22 -3867.69,-1014.22 -1585.72,0 -2869.58,499.06 -3843.55,1497.17 -973.96,998.12 -1460.95,2350.4 -1460.95,4056.85 0,1634.01 458.82,2938 1380.46,3907.94 917.62,969.94 2157.22,1456.93 3714.76,1456.93 1485.09,0 2845.43,-362.22 4076.97,-1086.66l0 3481.33z"/>
  <g id="_1457325598096">
   <path class="fil0" d="M14220.47 18970.2l0 -4154.09 492.59 414.34c559.02,470.23 1184.44,840.1 1873,1085.77 657.34,234.53 1340.01,362.13 2038.32,362.13 342.85,0 701.98,-23.89 1036.02,-105.04 242.44,-58.9 488.9,-144.85 699.93,-280.27 149.36,-95.84 284.64,-216.77 373.6,-372.07 80.63,-140.77 116.45,-288.52 116.45,-450.54 0,-222.5 -59.7,-420.4 -190.84,-600.37 -162.88,-223.53 -377.65,-409.05 -606.18,-562.81 -308.64,-207.68 -642.95,-382.79 -981.51,-536.13 -419.62,-190.06 -842.23,-373.39 -1267.91,-549.44 -1009.36,-417.43 -2022.81,-1007.71 -2721.47,-1864.77 -641.89,-787.41 -922.3,-1713.49 -922.3,-2722.12 0,-747.07 135.29,-1489.16 502.77,-2146.85 336.8,-602.81 794.46,-1098.24 1368.29,-1482.7 597.54,-400.34 1264.91,-668.71 1962.41,-836.95 758.25,-182.89 1536.32,-263.76 2315.71,-263.76 703.11,0 1414.81,38.09 2110.22,145.4 586.09,90.43 1164.63,236.22 1718.47,449.23l192.1 73.89 0 3884.2 -469.9 -324.3c-242.38,-167.27 -498.71,-310.63 -767.68,-430.53 -282.06,-125.73 -573.02,-231.75 -870.43,-315.03 -291.04,-81.49 -588.22,-143.44 -887.87,-183.04 -277.37,-36.67 -557.06,-57.72 -836.91,-57.72 -324.63,0 -654.6,24.81 -971.37,98.61 -243.4,56.7 -488.63,141.49 -702.68,272.4 -159.58,97.6 -302.64,220.17 -404.59,378.43 -89.27,138.55 -126.07,290.71 -126.07,454.93 0,183.32 42.85,351.32 144.77,504.21 127.76,191.64 304.45,353.13 490.19,487.35 261.55,189 550.97,349.59 840.12,491.95 378.54,186.35 767.33,355.18 1156.85,517.15 563.8,234.43 1114.38,502.96 1640.52,813.14 468.82,276.4 906.95,608.19 1284.28,1001.32 365.71,381.03 646.41,819.3 842.45,1309.4 214.14,535.37 291.02,1119.62 291.02,1693.39 0,774.78 -128.3,1558.82 -509.77,2242.48 -338.16,606.02 -800.38,1098.52 -1383.23,1474.97 -606.15,391.5 -1279.68,647.43 -1983.95,796.98 -768.09,163.11 -1551.39,233.56 -2336.07,233.56 -799.41,0 -1599.66,-63.47 -2385.81,-210.87 -687.43,-128.9 -1376.75,-332.08 -2000.68,-652.26l-162.86 -83.57z"/>
  </g>
  <path class="fil2" d="M14520.15 18787.15l0 -3327.36c603.05,507.26 1259.3,886.82 1965.21,1138.68 705.91,251.86 1418.92,379.56 2139.02,379.56 425.67,0 794.59,-39.02 1106.76,-113.51 315.71,-78.04 578.21,-180.91 791.04,-319.26 212.84,-134.79 368.92,-294.42 471.79,-475.34 106.42,-184.46 156.09,-383.1 156.09,-599.49 0,-290.88 -81.59,-549.83 -248.32,-776.86 -166.72,-230.57 -393.75,-443.41 -681.08,-634.96 -287.33,-195.11 -627.87,-383.11 -1025.17,-560.48 -393.75,-180.91 -819.42,-365.37 -1277.02,-553.38 -1163.52,-482.43 -2032.61,-1074.83 -2603.72,-1777.19 -571.12,-698.82 -854.9,-1543.08 -854.9,-2532.77 0,-776.86 152.53,-1443.75 464.7,-2000.68 312.16,-560.47 737.83,-1018.07 1273.48,-1379.9 539.19,-358.28 1159.96,-624.32 1865.88,-794.59 705.91,-170.27 1454.39,-255.41 2245.44,-255.41 776.85,0 1465.03,49.66 2064.52,141.89 595.95,92.23 1149.33,237.67 1656.59,432.77l0 3107.44c-251.86,-173.82 -521.45,-326.35 -815.88,-457.6 -294.42,-131.25 -599.49,-241.22 -911.65,-329.9 -308.62,-85.14 -620.78,-148.99 -929.4,-191.56 -308.61,-39.02 -599.49,-60.3 -876.18,-60.3 -383.11,0 -727.19,35.47 -1039.36,106.42 -312.16,74.49 -574.66,177.36 -791.04,308.61 -212.84,131.25 -379.56,287.33 -500.17,471.79 -117.06,184.46 -173.82,390.21 -173.82,617.23 0,251.86 63.85,475.34 195.1,670.44 131.25,198.65 319.26,386.66 564.02,564.02 241.22,173.82 535.64,347.64 883.28,517.91 344.09,170.27 737.84,344.09 1174.15,525 595.95,248.31 1128.05,514.36 1603.38,794.59 475.34,280.24 883.28,599.5 1220.27,950.68 340.54,354.73 599.5,759.12 780.41,1213.18 180.91,450.5 269.59,979.05 269.59,1582.09 0,833.62 -156.08,1528.89 -471.79,2096.45 -315.71,564.02 -741.38,1021.63 -1284.12,1369.26 -539.19,351.18 -1167.06,603.04 -1883.61,755.58 -720.11,152.53 -1475.68,227.02 -2273.82,227.02 -815.88,0 -1592.74,-67.4 -2330.58,-205.74 -737.84,-138.35 -1379.9,-347.64 -1919.09,-624.33z"/>
 </g>
</svg>
